
        <svg xmlns="http://www.w3.org/2000/svg" xmlns:xlink="http://www.w3.org/1999/xlink" version="1.1" width="3133.3333333333335" 
        height="2380.0000000000005" viewBox="0 0 3133.3333333333335 2380.0000000000005">
			<rect fill="#060606" width="3133.3333333333335" height="2380.0000000000005"/>
			<g transform="scale(6.666666666666667) translate(10, 10)">
				<defs id="SvgjsDefs3091"><linearGradient id="SvgjsLinearGradient3098"><stop id="SvgjsStop3099" stop-color="#51504f" offset="0"></stop><stop id="SvgjsStop3100" stop-color="#939598" offset="0.5"></stop><stop id="SvgjsStop3101" stop-color="#51504f" offset="1"></stop></linearGradient><linearGradient id="SvgjsLinearGradient3102"><stop id="SvgjsStop3103" stop-color="#7d141d" offset="0"></stop><stop id="SvgjsStop3104" stop-color="#ff1e27" offset="1"></stop></linearGradient><linearGradient id="SvgjsLinearGradient3105"><stop id="SvgjsStop3106" stop-color="#7d141d" offset="0"></stop><stop id="SvgjsStop3107" stop-color="#ff1e27" offset="1"></stop></linearGradient></defs><g id="SvgjsG3092" featureKey="rootContainer" transform="matrix(1,0,0,1,0,0)" fill="url(#SvgjsLinearGradient3098)"><path xmlns="http://www.w3.org/2000/svg" fill-rule="evenodd" d=" M0,0 H450 V337 H0,0 z M2,2 H448 V335 H2,2 z M6,6 H444 V331 H6 z M8,8 H442 V329 H6,8 z "></path></g><g id="SvgjsG3093" featureKey="1p4tPl-0" transform="matrix(5.235042735042735,0,0,5.235042735042735,146.52991452991455,39.52991452991453)" fill="url(#SvgjsLinearGradient3102)"><g xmlns="http://www.w3.org/2000/svg" transform="translate(-150 -380)"><g xmlns="http://www.w3.org/2000/svg" xmlns:xlink="http://www.w3.org/1999/xlink"><path d="M165,382c-7.181,0-13,5.819-13,13s5.819,13,13,13s13-5.819,13-13S172.181,382,165,382z M166,383.051    c1.459,0.121,2.841,0.508,4.105,1.105l-1.502,2.602c-0.813-0.356-1.688-0.597-2.604-0.699V383.051z M164,383.051v3.008    c-0.916,0.103-1.791,0.343-2.604,0.699l-1.502-2.602C161.159,383.559,162.541,383.172,164,383.051z M158.16,385.153l1.509,2.612    c-0.726,0.536-1.367,1.178-1.903,1.903l-2.612-1.509C155.97,386.988,156.988,385.97,158.16,385.153z M154.156,389.895l2.602,1.502    c-0.356,0.813-0.597,1.688-0.699,2.604h-3.008C153.172,392.541,153.559,391.159,154.156,389.895z M153.051,396h3.008    c0.103,0.916,0.343,1.791,0.699,2.604l-2.602,1.502C153.559,398.841,153.172,397.459,153.051,396z M158.16,404.847    c-1.172-0.816-2.19-1.835-3.007-3.007l2.612-1.509c0.536,0.726,1.178,1.367,1.903,1.903L158.16,404.847z M164,406.949    c-1.459-0.121-2.841-0.508-4.105-1.105l1.502-2.602c0.813,0.356,1.688,0.597,2.604,0.699V406.949z M157,395c0-4.412,3.588-8,8-8    s8,3.588,8,8s-3.588,8-8,8S157,399.412,157,395z M166,406.949v-3.008c0.916-0.103,1.791-0.343,2.604-0.699l1.502,2.602    C168.841,406.441,167.459,406.828,166,406.949z M171.84,404.847l-1.509-2.612c0.726-0.536,1.367-1.178,1.903-1.903l2.612,1.509    C174.03,403.012,173.012,404.03,171.84,404.847z M175.844,400.105l-2.602-1.502c0.356-0.813,0.597-1.688,0.699-2.604h3.008    C176.828,397.459,176.441,398.841,175.844,400.105z M176.949,394h-3.008c-0.103-0.916-0.343-1.791-0.699-2.604l2.602-1.502    C176.441,391.159,176.828,392.541,176.949,394z M172.234,389.669c-0.536-0.726-1.178-1.367-1.903-1.903l1.509-2.612    c1.172,0.816,2.19,1.835,3.007,3.007L172.234,389.669z"></path><path d="M166.625,393.162L165,389.871l-1.625,3.291l-3.632,0.528l2.628,2.563l-0.62,3.618l3.249-1.708l3.249,1.708l-0.62-3.618    l2.628-2.563L166.625,393.162z M166.921,398.043l-1.921-1.01l-1.921,1.01l0.366-2.139l-1.554-1.516l2.147-0.313L165,392.13    l0.961,1.946l2.147,0.313l-1.554,1.516L166.921,398.043z"></path></g></g></g><g id="SvgjsG3094" featureKey="dYASrj-0" transform="matrix(6.032402572192094,0,0,6.032402572192094,47.466387762749434,164.97966423497797)" fill="url(#SvgjsLinearGradient3105)"><path d="M6 6.800000000000001 l2.3 0 c0.1 0 0.18 0.08 0.18 0.18 l0 9.58 c0 1.94 -1.56 3.62 -3.6 3.62 l-0.5 0 c-0.84 0 -1.66 -0.32 -2.38 -0.9 c-0.6 -0.56 -1.18 -1.3 -1.56 -2.12 c-0.04 -0.1 -0.02 -0.18 0.06 -0.24 l2.1 -1.46 c0.08 -0.06 0.2 -0.06 0.24 0.06 c0.28 0.8 0.76 1.98 1.8 1.98 c1 0 1.18 -1.38 1.18 -2.22 l0 -8.3 c0 -0.1 0.08 -0.18 0.18 -0.18 z M2.28 17.2 c-0.08 -0.12 -0.3 0 -0.2 0.16 c0.5 0.84 1.06 1.6 2.52 1.6 c1.68 0 2.68 -1.3 2.68 -3.46 l0 -7.5 c0 -0.12 -0.26 -0.14 -0.26 0 l0 7.5 c0 0.98 -0.2 1.8 -0.62 2.36 c-0.42 0.54 -1.02 0.84 -1.8 0.84 c-1.32 0 -1.82 -0.68 -2.32 -1.5 z M14.5 6.800000000000001 c0.1 0 0.18 0.08 0.18 0.18 l0 10.5 l4.32 0 c0.1 0 0.18 0.08 0.18 0.18 l0 2.16 c0 0.1 -0.08 0.18 -0.18 0.18 l-6.78 0 c-0.1 0 -0.16 -0.08 -0.16 -0.18 l0 -12.84 c0 -0.1 0.06 -0.18 0.16 -0.18 l2.28 0 z M13.26 8.02 l0 10.76 c0 0.04 0.04 0.1 0.12 0.1 l4.62 0 c0.16 0 0.16 -0.26 0 -0.26 l-4.52 0 l0 -10.6 c0 -0.14 -0.22 -0.16 -0.22 0 z M22.14 20 c-0.1 0 -0.16 -0.08 -0.16 -0.18 l0 -12.84 c0 -0.1 0.06 -0.18 0.16 -0.18 l2.28 0 c0.1 0 0.18 0.08 0.18 0.18 l0 12.84 c0 0.1 -0.08 0.18 -0.18 0.18 l-2.28 0 z M23.18 8 l0 10.78 c0 0.18 0.22 0.18 0.22 0 l0 -10.78 c0 -0.14 -0.22 -0.14 -0.22 0 z M29.980000000000004 6.92 l2.2 8.28 l2.26 -8.28 c0.04 -0.06 0.08 -0.12 0.16 -0.12 l2.28 0 c0.12 0 0.2 0.1 0.16 0.22 l-3.46 12.86 c-0.04 0.08 -0.08 0.12 -0.16 0.12 l-2.48 0 c-0.06 0 -0.12 -0.04 -0.14 -0.12 l-3.46 -12.86 c-0.02 -0.12 0.06 -0.22 0.18 -0.22 l2.3 0 c0.08 0 0.12 0.06 0.16 0.12 z M32.14 18.62 l-3.34 -10.66 c-0.06 -0.16 -0.28 -0.06 -0.22 0.06 l3.32 10.68 c0.08 0.3 0.4 0.32 0.5 0 l3.2 -10.68 c0.04 -0.12 -0.18 -0.2 -0.22 -0.06 z M39.980000000000004 20 c-0.1 0 -0.16 -0.08 -0.16 -0.18 l0 -12.84 c0 -0.1 0.06 -0.18 0.16 -0.18 l6.8 0 c0.1 0 0.18 0.08 0.18 0.18 l0 2.14 c0 0.1 -0.08 0.18 -0.18 0.18 l-4.32 0 l0 2.72 l3.36 0 c0.1 0 0.16 0.08 0.16 0.18 l0 2.18 c0 0.1 -0.06 0.18 -0.16 0.18 l-3.36 0 l0 2.94 l4.32 0 c0.1 0 0.18 0.08 0.18 0.18 l0 2.14 c0 0.1 -0.08 0.18 -0.18 0.18 l-6.8 0 z M40.980000000000004 8.06 l0 10.64 c0 0.12 0.08 0.16 0.16 0.16 l4.6 0 c0.18 0 0.14 -0.24 0 -0.24 l-4.5 0 l0 -5.22 l3.68 0 c0.12 0 0.12 -0.28 0 -0.28 l-3.68 0 l0 -4.96 l4.5 0 c0.14 0 0.18 -0.26 0 -0.26 l-4.6 0 c-0.08 0 -0.16 0.06 -0.16 0.16 z M53.56000000000001 17.5 l4.7 0 c0.1 0 0.18 0.08 0.18 0.18 l0 2.14 c0 0.1 -0.08 0.18 -0.18 0.18 l-7.72 0 c-0.08 0 -0.18 -0.04 -0.18 -0.18 l0 -2.22 s0 -0.02 0.02 -0.08 l4.82 -8.22 l-4.72 0 c-0.1 0 -0.18 -0.08 -0.18 -0.18 l0 -2.14 c0 -0.1 0.08 -0.18 0.18 -0.18 l7.78 0 c0.12 0 0.14 0.12 0.14 0.16 l0 2.24 c0 0.02 0 0.06 -0.02 0.08 z M51.60000000000001 7.9 c-0.14 0 -0.12 0.26 0 0.26 l5.4 0 c0.14 0 0.16 0.04 0.1 0.14 l-5.76 10.06 c-0.1 0.2 0 0.52 0.3 0.52 l5.46 0 c0.16 0 0.16 -0.26 0 -0.26 l-5.46 0 c-0.08 0 -0.1 -0.06 -0.08 -0.14 l5.74 -10.08 c0.2 -0.34 0.04 -0.5 -0.2 -0.5 l-5.5 0 z"></path></g>
			</g>
		</svg>
	